<?xml version="1.0" encoding="UTF-8"?>
<svg width="200px" height="200px" viewBox="0 0 200 200" version="1.1" xmlns="http://www.w3.org/2000/svg">
    <g stroke="none" stroke-width="1" fill="none" fill-rule="evenodd">
        <path d="M100,0 C155.228,0 200,44.772 200,100 C200,155.228 155.228,200 100,200 C44.772,200 0,155.228 0,100 C0,44.772 44.772,0 100,0 Z M100,20 C55.8172,20 20,55.8172 20,100 C20,144.183 55.8172,180 100,180 C144.183,180 180,144.183 180,100 C180,55.8172 144.183,20 100,20 Z" fill="#0d5c3e" fill-rule="nonzero"></path>
        <path d="M100,40 C133.137,40 160,66.8629 160,100 C160,133.137 133.137,160 100,160 C66.8629,160 40,133.137 40,100 C40,66.8629 66.8629,40 100,40 Z M100,60 C77.9086,60 60,77.9086 60,100 C60,122.091 77.9086,140 100,140 C122.091,140 140,122.091 140,100 C140,77.9086 122.091,60 100,60 Z" fill="#d4af37" fill-rule="nonzero"></path>
        <path d="M100,80 C111.046,80 120,88.9543 120,100 C120,111.046 111.046,120 100,120 C88.9543,120 80,111.046 80,100 C80,88.9543 88.9543,80 100,80 Z" fill="#0d5c3e" fill-rule="nonzero"></path>
        <path d="M20,100 L40,100 M160,100 L180,100 M100,20 L100,40 M100,160 L100,180" stroke="#0d5c3e" stroke-width="4" stroke-linecap="round"></path>
        <path d="M34.3146,34.3146 L48.6294,48.6294 M151.371,151.371 L165.685,165.685 M34.3146,165.685 L48.6294,151.371 M151.371,48.6294 L165.685,34.3146" stroke="#d4af37" stroke-width="4" stroke-linecap="round"></path>
    </g>
</svg>
